<?xml version="1.0" standalone="no"?>
<!DOCTYPE svg PUBLIC "-//W3C//DTD SVG 20010904//EN"
 "http://www.w3.org/TR/2001/REC-SVG-20010904/DTD/svg10.dtd">
<svg version="1.0" xmlns="http://www.w3.org/2000/svg"
 width="500.000000pt" height="500.000000pt" viewBox="0 0 500.000000 500.000000"
 preserveAspectRatio="xMidYMid meet">

<g transform="translate(0.000000,500.000000) scale(0.100000,-0.100000)"
fill="#000000" stroke="none">
<path d="M2452 3278 c-23 -46 -79 -135 -123 -198 -45 -63 -86 -126 -91 -140
-17 -44 -12 -154 10 -202 19 -44 101 -128 124 -128 23 1 48 27 48 50 0 12 -9
38 -21 56 -14 24 -21 51 -21 90 -1 50 7 71 65 187 36 73 71 154 77 182 12 54
6 126 -14 163 -12 22 -14 19 -54 -60z"/>
<path d="M2585 3144 c-7 -41 -43 -114 -105 -213 -47 -75 -50 -112 -15 -146 33
-34 87 -34 121 0 69 69 88 204 44 320 -29 78 -36 84 -45 39z"/>
<path d="M2708 2943 c-9 -120 -81 -236 -195 -315 -24 -16 -43 -33 -43 -38 0
-19 95 -10 146 14 131 61 190 223 129 354 -13 28 -26 52 -28 52 -2 0 -7 -30
-9 -67z"/>
<path d="M1619 2420 c-84 -14 -124 -77 -120 -187 1 -45 52 -100 103 -114 35
-9 49 -7 99 11 58 22 59 23 59 60 0 25 5 40 16 44 28 11 6 23 -48 24 -65 3
-90 -9 -53 -26 19 -9 25 -19 25 -42 0 -61 -89 -46 -123 20 -34 66 -3 180 48
180 39 0 75 -18 75 -38 0 -25 7 -31 31 -25 14 4 19 14 19 39 0 18 -5 36 -12
40 -21 13 -82 20 -119 14z"/>
<path d="M2395 2420 c-76 -16 -122 -86 -112 -170 11 -89 59 -134 144 -134 61
0 99 22 125 75 60 116 -36 255 -157 229z m56 -40 c51 -28 67 -163 24 -210 -29
-32 -74 -23 -103 20 -21 30 -23 43 -19 98 7 89 42 122 98 92z"/>
<path d="M3128 2423 c-39 -6 -78 -46 -78 -81 0 -40 29 -73 89 -101 28 -14 53
-32 56 -41 10 -31 -5 -50 -39 -50 -39 0 -52 9 -65 43 -6 15 -17 27 -26 27 -23
0 -21 -76 3 -88 57 -30 149 -19 177 21 22 32 19 80 -7 104 -13 11 -47 33 -76
48 -45 25 -53 32 -50 54 5 44 81 41 92 -4 12 -47 46 -25 46 31 0 17 -7 25 -25
29 -47 10 -70 11 -97 8z"/>
<path d="M3448 2423 c-39 -6 -78 -46 -78 -81 0 -40 29 -73 89 -101 28 -14 53
-32 56 -41 10 -31 -5 -50 -39 -50 -39 0 -52 9 -65 43 -6 15 -17 27 -26 27 -23
0 -21 -76 3 -88 57 -30 149 -19 177 21 22 32 19 80 -7 104 -13 11 -47 33 -76
48 -45 25 -53 32 -50 54 5 44 81 41 92 -4 12 -47 46 -25 46 31 0 17 -7 25 -25
29 -47 10 -70 11 -97 8z"/>
<path d="M4025 2424 c-5 -1 -22 -5 -37 -8 -55 -12 -83 -69 -58 -116 6 -10 37
-33 70 -51 82 -44 97 -99 27 -99 -41 0 -54 9 -62 43 -5 18 -14 27 -27 27 -16
0 -19 -6 -16 -42 3 -41 5 -43 48 -55 87 -26 160 9 160 76 0 42 -32 79 -87 100
-72 29 -84 91 -17 91 30 0 37 -4 46 -31 15 -43 42 -35 46 13 3 34 1 38 -25 43
-49 11 -58 12 -68 9z"/>
<path d="M520 2411 c0 -5 7 -11 15 -15 12 -4 15 -28 15 -125 0 -111 -1 -120
-20 -126 -44 -14 -15 -25 67 -25 144 0 206 46 207 151 0 57 -32 111 -78 133
-37 17 -206 23 -206 7z m198 -71 c44 -84 11 -172 -66 -178 l-42 -3 0 110 c0
119 1 121 60 118 19 -2 31 -13 48 -47z"/>
<path d="M890 2411 c0 -5 9 -12 20 -16 18 -6 19 -14 17 -121 -2 -97 -5 -118
-19 -128 -30 -22 -21 -26 52 -26 67 0 93 12 50 23 -19 5 -20 14 -20 125 0 112
1 121 20 127 11 4 18 11 15 16 -8 12 -135 12 -135 0z"/>
<path d="M1243 2413 c-7 -2 -13 -10 -13 -16 0 -7 -21 -65 -47 -129 -31 -78
-53 -120 -65 -124 -37 -11 -16 -24 42 -24 59 0 79 13 40 25 -11 3 -20 10 -20
14 0 42 97 64 131 30 24 -24 24 -36 -1 -44 -41 -13 -18 -25 50 -25 39 0 70 3
70 6 0 3 -9 13 -20 22 -10 10 -37 62 -59 117 -64 165 -65 166 -108 148z m47
-165 c0 -14 -8 -18 -35 -18 -41 0 -43 9 -18 72 l17 42 18 -39 c9 -22 18 -48
18 -57z"/>
<path d="M1887 2413 c-4 -3 2 -12 12 -20 17 -12 20 -26 20 -123 0 -99 -3 -112
-20 -123 -32 -20 -22 -27 41 -27 58 0 80 12 40 23 -18 5 -20 13 -20 94 1 102
-4 103 83 -34 48 -76 55 -83 85 -83 l32 0 0 134 c0 126 1 135 20 141 39 12 19
25 -39 25 -63 0 -90 -15 -46 -26 24 -6 25 -8 25 -95 0 -49 -2 -89 -4 -89 -2 0
-34 47 -71 105 l-67 105 -42 0 c-24 0 -46 -3 -49 -7z"/>
<path d="M2764 2403 c-31 -97 -102 -254 -116 -259 -37 -12 -15 -24 42 -24 33
0 60 4 60 10 0 6 -6 10 -14 10 -23 0 -29 19 -13 43 11 18 23 22 60 21 53 -2
63 -7 70 -33 3 -14 -1 -22 -14 -26 -40 -13 -16 -25 51 -25 40 0 70 4 70 10 0
6 -6 10 -14 10 -8 0 -26 29 -41 68 -81 203 -86 212 -111 212 -15 0 -27 -7 -30
-17z m56 -155 c0 -14 -8 -18 -36 -18 -34 0 -36 2 -31 28 3 15 11 41 18 57 l11
30 19 -40 c10 -22 19 -48 19 -57z"/>
<path d="M3680 2411 c0 -5 9 -13 21 -16 20 -7 21 -12 17 -122 -3 -95 -6 -117
-21 -128 -29 -21 -20 -25 53 -25 67 0 93 12 50 23 -19 5 -20 14 -20 125 0 112
1 121 20 127 11 4 18 11 15 16 -8 12 -135 12 -135 0z"/>
<path d="M4220 2375 c0 -38 3 -45 19 -45 14 0 21 8 23 28 3 23 8 27 33 27 l30
0 0 -115 c0 -110 -1 -115 -22 -125 -41 -18 -24 -25 57 -25 78 0 105 12 55 24
-25 6 -25 7 -25 126 l0 120 29 0 c25 0 31 -5 36 -31 11 -47 39 -35 43 19 l3
42 -140 0 -141 0 0 -45z"/>
<path d="M1742 2013 c410 -2 1085 -2 1500 0 414 1 78 2 -747 2 -825 0 -1164
-1 -753 -2z"/>
<path d="M2258 1923 c7 -3 12 -26 12 -63 0 -37 -5 -60 -12 -63 -7 -3 13 -6 44
-6 49 -1 58 2 63 20 9 27 -4 39 -16 16 -6 -9 -19 -17 -30 -17 -19 0 -20 5 -17
60 l3 60 -30 -1 c-16 0 -24 -3 -17 -6z"/>
<path d="M2420 1917 c0 -23 12 -27 26 -9 7 9 16 14 20 9 11 -11 13 -89 2 -109
-7 -15 -4 -18 24 -17 18 0 27 3 21 6 -17 6 -17 109 -1 119 6 4 17 -1 25 -11
12 -18 13 -18 13 3 0 20 -5 22 -65 22 -47 0 -65 -4 -65 -13z"/>
<path d="M2625 1860 l0 -70 36 0 c22 0 47 8 63 21 55 43 17 119 -60 119 l-39
0 0 -70z m85 41 c23 -43 6 -91 -32 -91 -15 0 -18 8 -18 48 0 27 3 52 7 55 12
13 32 7 43 -12z"/>
</g>
</svg>
